<?xml version="1.0" encoding="utf-8"?>
<!-- Generator: Adobe Illustrator 21.0.2, SVG Export Plug-In . SVG Version: 6.00 Build 0)  -->
<svg version="1.1" id="Isolation_Mode" xmlns="http://www.w3.org/2000/svg" xmlns:xlink="http://www.w3.org/1999/xlink" x="0px"
	 y="0px" viewBox="0 0 292.7 93.4" style="enable-background:new 0 0 292.7 93.4;" xml:space="preserve">
<style type="text/css">
	.st0{clip-path:url(#SVGID_2_);fill:#FFFFFF;}
	.st1{clip-path:url(#SVGID_4_);fill:#FFFFFF;}
	.st2{clip-path:url(#SVGID_6_);fill:#FFFFFF;}
	.st3{clip-path:url(#SVGID_8_);fill:#FFFFFF;}
	.st4{clip-path:url(#SVGID_10_);fill:#FFFFFF;}
	.st5{clip-path:url(#SVGID_12_);fill:#FFFFFF;}
	.st6{clip-path:url(#SVGID_14_);fill:#FFFFFF;}
	.st7{clip-path:url(#SVGID_16_);fill:#FFFFFF;}
	.st8{clip-path:url(#SVGID_18_);fill:#FFFFFF;}
	.st9{clip-path:url(#SVGID_20_);fill:#FFFFFF;}
	.st10{clip-path:url(#SVGID_22_);fill:#FFFFFF;}
	.st11{clip-path:url(#SVGID_24_);fill:#FFFFFF;}
	.st12{clip-path:url(#SVGID_28_);fill:#FFFFFF;}
	.st13{clip-path:url(#SVGID_30_);fill:#FFFFFF;}
	.st14{clip-path:url(#SVGID_32_);fill:#FFFFFF;}
	.st15{clip-path:url(#SVGID_34_);fill:#FFFFFF;}
	.st16{clip-path:url(#SVGID_36_);fill:#FFFFFF;}
	.st17{clip-path:url(#SVGID_38_);fill:#FFFFFF;}
	.st18{clip-path:url(#SVGID_40_);fill:#FFFFFF;}
	.st19{clip-path:url(#SVGID_42_);fill:#FFFFFF;}
	.st20{clip-path:url(#SVGID_44_);fill:#FFFFFF;}
	.st21{clip-path:url(#SVGID_46_);fill:#FFFFFF;}
	.st22{clip-path:url(#SVGID_48_);fill:#FFFFFF;}
	.st23{clip-path:url(#SVGID_50_);fill:#FFFFFF;}
	.st24{clip-path:url(#SVGID_52_);fill:#FFFFFF;}
	.st25{clip-path:url(#SVGID_54_);fill:#FFFFFF;}
	.st26{clip-path:url(#SVGID_56_);fill:#FFFFFF;}
	.st27{clip-path:url(#SVGID_58_);fill:#CEA052;}
</style>
<g>
	<g>
		<defs>
			<rect id="SVGID_1_" y="0" width="292.7" height="93.4"/>
		</defs>
		<clipPath id="SVGID_2_">
			<use xlink:href="#SVGID_1_"  style="overflow:visible;"/>
		</clipPath>
		<path class="st0" d="M106.6,67.8c-1.9,0.3-2.1,0.4-3.3,2.7c-1.2,2.3-3.7,7.6-7.5,15.7h-1.1l-2.3-14.5h-0.1l-7,14.5h-1.1l-1.8-15.8
			c-0.3-2.3-0.4-2.5-2.4-2.7l0.2-0.9H87l-0.2,0.9l-0.7,0.1c-1.2,0.2-1.4,0.3-1.2,1.8l1.3,12.2h0.1l6.9-14.7h1l2.4,14.7h0.1
			c1.8-3.9,4.3-9,5.4-12.1c0.6-1.5,0.4-1.8-1.1-1.9l-0.7-0.1l0.2-0.9h6.5L106.6,67.8z"/>
	</g>
	<g>
		<defs>
			<rect id="SVGID_3_" y="0" width="292.7" height="93.4"/>
		</defs>
		<clipPath id="SVGID_4_">
			<use xlink:href="#SVGID_3_"  style="overflow:visible;"/>
		</clipPath>
		<path class="st1" d="M140.7,83.4c-1.8,1.9-3.5,2.9-4.3,2.9s-1.1-0.8-0.5-3.1c0.6-2.2,1.1-4.4,1.6-6.5c0.4-1.7,0.3-2.1-0.2-2.1
			c-1.3,0-4.7,3.6-6.2,6c-0.4,1.5-0.9,3.3-1.2,5.1c-0.8,0.1-1.6,0.4-2.2,0.6l-0.2-0.2c0.8-3.1,1.7-6.8,2.4-10
			c0.2-0.9,0.1-1.1-0.1-1.1c-0.3,0-1.2,0.6-1.9,1.4l-0.4-0.9c1.6-1.7,3.4-2.8,4.3-2.8c0.7,0,0.9,1,0.3,3.4l-0.5,2.2h0.1
			c1.9-2.6,4.1-4.3,5.3-4.9c0.8-0.5,1.5-0.7,2.1-0.7c0.7,0,1.6,0.4,0.7,4.2c-0.5,2-1,4.1-1.5,6.1c-0.2,0.8-0.1,1.1,0.1,1.1
			c0.3,0,1.1-0.5,2-1.4L140.7,83.4z"/>
	</g>
	<g>
		<defs>
			<rect id="SVGID_5_" y="0" width="292.7" height="93.4"/>
		</defs>
		<clipPath id="SVGID_6_">
			<use xlink:href="#SVGID_5_"  style="overflow:visible;"/>
		</clipPath>
		<path class="st2" d="M159.2,72.7c1.3,0,2.4,0.9,2.4,1.7c0,0.5-0.3,1-0.8,1.3c-0.3,0.2-0.5,0.1-0.7-0.1c-0.6-0.8-1.3-1.4-2.3-1.4
			c-0.8,0-1.6,0.6-1.6,1.6s0.9,1.8,1.9,2.6c1.8,1.3,2.5,2.2,2.5,3.5c0,2.3-2.9,4.5-5.4,4.5c-1.4,0-3.1-1.1-3.1-2.1
			c0-0.5,0.4-1,0.9-1.3c0.4-0.2,0.6-0.1,0.8,0.1c0.7,1.1,1.8,1.8,2.8,1.8c1.2,0,1.9-0.8,1.9-1.7c0-0.7-0.3-1.4-1.8-2.5
			c-1.4-1-2.6-2.1-2.6-3.6c0-0.9,0.4-1.8,1.5-2.8C156.8,73.3,158.3,72.7,159.2,72.7L159.2,72.7z"/>
	</g>
	<g>
		<defs>
			<rect id="SVGID_7_" y="0" width="292.7" height="93.4"/>
		</defs>
		<clipPath id="SVGID_8_">
			<use xlink:href="#SVGID_7_"  style="overflow:visible;"/>
		</clipPath>
		<path class="st3" d="M168.5,72.7c1.3,0,2.4,0.9,2.4,1.7c0,0.5-0.3,1-0.8,1.3c-0.3,0.2-0.5,0.1-0.7-0.1c-0.6-0.8-1.3-1.4-2.3-1.4
			c-0.8,0-1.6,0.6-1.6,1.6s0.9,1.8,1.9,2.6c1.8,1.3,2.5,2.2,2.5,3.5c0,2.3-2.9,4.5-5.4,4.5c-1.4,0-3.1-1.1-3.1-2.1
			c0-0.5,0.4-1,0.9-1.3c0.4-0.2,0.6-0.1,0.8,0.1c0.7,1.1,1.8,1.8,2.8,1.8c1.2,0,1.9-0.8,1.9-1.7c0-0.7-0.3-1.4-1.8-2.5
			c-1.4-1-2.6-2.1-2.6-3.6c0-0.9,0.4-1.8,1.5-2.8C166,73.3,167.5,72.7,168.5,72.7L168.5,72.7z"/>
	</g>
	<g>
		<defs>
			<rect id="SVGID_9_" y="0" width="292.7" height="93.4"/>
		</defs>
		<clipPath id="SVGID_10_">
			<use xlink:href="#SVGID_9_"  style="overflow:visible;"/>
		</clipPath>
		<path class="st4" d="M193,81.2c-0.5,1.2-1.7,3.6-2.4,4.5c-0.9,0.2-3.1,0.7-5.2,0.7c-4.9,0-8.6-3-8.6-8.5c0-7,5.4-11.5,12.3-11.5
			c2.4,0,4.2,0.6,5.1,0.9c-0.1,1.5-0.1,3.2-0.2,4.6l-1,0.1c-0.1-3.5-1.6-4.5-4.6-4.5c-5.1,0-8.6,4.8-8.6,10.3c0,4.2,2.1,7.5,6,7.5
			c2.9,0,4.6-1.9,6.3-4.6L193,81.2z"/>
	</g>
	<g>
		<defs>
			<rect id="SVGID_11_" y="0" width="292.7" height="93.4"/>
		</defs>
		<clipPath id="SVGID_12_">
			<use xlink:href="#SVGID_11_"  style="overflow:visible;"/>
		</clipPath>
		<path class="st5" d="M202.4,72.7c2.5,0,4,1.6,4,4.7c0,2.5-1.1,5.4-3.2,7.1c-1.3,1.1-2.9,1.8-4.6,1.8c-2.8,0-4-2.2-4-4.6
			c0-3.8,2-6.7,4.5-8C200.2,73.1,201.4,72.7,202.4,72.7L202.4,72.7z M201.4,73.9c-0.4,0-0.8,0.1-1.1,0.3c-1.2,0.5-3.1,2.9-3.1,7.3
			c0,2.2,0.9,3.6,2.5,3.6c0.4,0,0.7-0.1,1-0.2c1.6-0.7,3.2-3.7,3.2-7.5C203.8,75,202.8,73.9,201.4,73.9L201.4,73.9z"/>
	</g>
	<g>
		<defs>
			<rect id="SVGID_13_" y="0" width="292.7" height="93.4"/>
		</defs>
		<clipPath id="SVGID_14_">
			<use xlink:href="#SVGID_13_"  style="overflow:visible;"/>
		</clipPath>
		<path class="st6" d="M228.8,83.4c-1.6,1.8-3.5,2.9-4.3,2.9s-1-0.9-0.5-3l1.6-6.9c0.3-1.3,0.1-1.8-0.3-1.8c-1.4,0-5,4.1-6,6
			c-0.4,1.4-0.8,3.4-1.2,5.1c-0.8,0.1-1.6,0.3-2.2,0.5l-0.2-0.2c0.7-3,1.5-6,2.1-8.9c0.4-1.9,0.4-2.6-0.2-2.6c-1.5,0-5,4.2-6,6.1
			c-0.4,1.3-0.9,3.3-1.2,5.1c-0.8,0.1-1.5,0.3-2.2,0.5L208,86c0.9-3.4,1.7-6.7,2.5-10c0.2-1.1,0.1-1.2,0-1.2c-0.3,0-1.4,0.9-2.1,1.5
			l-0.4-0.8c1.7-1.9,3.5-2.9,4.3-2.9s0.9,1.1,0.3,3.6l-0.5,2.1h0.1c1.9-2.6,4-4.3,5.2-5c0.7-0.4,1.3-0.6,1.9-0.6
			c0.9,0,1.6,0.8,0.8,4.4l-0.3,1.1h0.1c1.9-2.7,4.1-4.3,5.3-5c0.8-0.4,1.3-0.6,1.9-0.6c0.6,0,1.6,0.4,0.7,4.3l-1.5,6.2
			c-0.2,0.7-0.1,0.9,0.1,0.9c0.3,0,1.2-0.5,2.1-1.4L228.8,83.4z"/>
	</g>
	<g>
		<defs>
			<rect id="SVGID_15_" y="0" width="292.7" height="93.4"/>
		</defs>
		<clipPath id="SVGID_16_">
			<use xlink:href="#SVGID_15_"  style="overflow:visible;"/>
		</clipPath>
		<path class="st7" d="M235.4,73.1c0.8-0.2,1.9-0.4,2.7-0.4c3.1,0,4.3,1.5,4.3,4.2c0,1.9-0.8,4.2-2.5,6.1c-1.4,1.6-3.6,2.9-5.5,3.4
			c-0.5,0-1.2-0.1-1.8-0.3l-0.8,4c-0.3,1.6-0.2,1.8,1.3,2l0.7,0.1l-0.1,0.9l-6.9,0.3l0.1-0.9c1.8-0.3,2.1-0.6,2.5-2.3
			c1.1-5.1,2.2-10.1,3.3-15.2c-1,0.3-1.7,0.7-2.4,1.1l-0.2-0.9c0.9-0.6,1.9-1.1,2.9-1.5l0.4-1.4c0.5-0.6,1.5-1.3,2.2-1.7l0.3,0.2
			L235.4,73.1z M236.9,74.1c-0.5,0-1.2,0.1-1.8,0.2l-2,9.7c0.4,0.4,1.1,1,1.9,1c2.1,0,4.9-3.9,4.9-7.6
			C239.9,74.7,238.6,74.1,236.9,74.1L236.9,74.1z"/>
	</g>
	<g>
		<defs>
			<rect id="SVGID_17_" y="0" width="292.7" height="93.4"/>
		</defs>
		<clipPath id="SVGID_18_">
			<use xlink:href="#SVGID_17_"  style="overflow:visible;"/>
		</clipPath>
		<path class="st8" d="M270.8,83.4c-1.8,1.9-3.5,2.9-4.3,2.9s-1.1-0.8-0.5-3.1c0.6-2.2,1.1-4.4,1.6-6.5c0.4-1.7,0.3-2.1-0.2-2.1
			c-1.3,0-4.7,3.6-6.2,6c-0.4,1.5-0.8,3.3-1.2,5.1c-0.8,0.1-1.6,0.4-2.2,0.6l-0.2-0.2c0.8-3.1,1.7-6.8,2.4-10
			c0.2-0.9,0.1-1.1-0.1-1.1c-0.3,0-1.2,0.6-1.9,1.4l-0.4-0.9c1.6-1.7,3.4-2.8,4.3-2.8c0.7,0,0.9,1,0.3,3.4l-0.5,2.2h0.1
			c1.9-2.6,4.1-4.3,5.3-4.9c0.8-0.5,1.5-0.7,2.1-0.7c0.7,0,1.6,0.4,0.7,4.2c-0.5,2-1,4.1-1.5,6.1c-0.2,0.8-0.1,1.1,0.1,1.1
			c0.3,0,1.1-0.5,2-1.4L270.8,83.4z"/>
	</g>
	<g>
		<defs>
			<rect id="SVGID_19_" y="0" width="292.7" height="93.4"/>
		</defs>
		<clipPath id="SVGID_20_">
			<use xlink:href="#SVGID_19_"  style="overflow:visible;"/>
		</clipPath>
		<path class="st9" d="M277.7,83.6c1.3-1.9,4-5.8,3.9-7.9c0-0.6-0.2-1-0.3-1.4c-0.1-0.2-0.1-0.5,0-0.8c0.2-0.5,0.8-0.9,1.3-0.9
			c0.7,0,1.2,0.7,1.2,1.6s-0.3,1.9-1.1,3.2c-1.3,2.4-3.7,6-5.3,8.2c-1.8,2.5-3.7,5.1-5.3,6.8l-3.2,0.8l-0.3-0.8
			c3.2-2,5.5-4.4,6.9-6.4c0-2.1-0.5-6.9-0.9-9.6c-0.2-1.4-0.4-1.7-0.6-1.7s-1,0.7-1.7,1.8l-0.6-0.8c1-1.5,2.4-3.2,3.6-3.2
			c0.9,0,1.3,1.1,1.6,3.4C277.3,78.3,277.5,81,277.7,83.6L277.7,83.6z"/>
	</g>
	<g>
		<defs>
			<rect id="SVGID_21_" y="0" width="292.7" height="93.4"/>
		</defs>
		<clipPath id="SVGID_22_">
			<use xlink:href="#SVGID_21_"  style="overflow:visible;"/>
		</clipPath>
		<path class="st10" d="M66.8,78.9c-1.2,1.3-2.5,2.1-3.2,2.1c-0.6,0-0.7-0.6-0.4-2l1.2-5c0.3-1.1,0.2-1.5-0.2-1.5
			c-0.9,0-3.5,2.4-4.5,4.1c-0.2,1-0.6,2.8-0.8,3.9c-0.5,0.1-1.1,0.3-1.6,0.4l-0.2-0.1c0.8-3.6,1.9-8.9,2.7-12.9
			c-1.3-0.1-2.2-0.2-3.7-0.2h-1.6l-2.1,10.2c-0.4,1.9-0.2,2,1.8,2.2L54,80.8h-5.9l0.1-0.7c1.8-0.2,2-0.3,2.4-2.2L53,67.7h-1.6
			c-1.8,0-2.3,0.2-2.7,0.6c-0.3,0.4-0.7,1-1.1,1.9h-0.7c0.4-1.3,0.8-2.7,1-3.9h0.5c0.2,0.5,0.4,0.5,1,0.5H58c1.6,0,2-0.1,2.2-0.3
			l0.1-0.5c0.4-0.2,1.2-0.5,1.5-0.5c0.2,0,0.2,0.2,0.1,0.8C61.3,69.2,60.7,72,60,75l0,0c1.4-1.8,3.1-3,4-3.5c0.6-0.3,1-0.4,1.4-0.4
			c0.6,0,1.2,0.4,0.7,2.4l-1.2,5c-0.2,0.7-0.1,0.8,0,0.8c0.2,0,0.9-0.4,1.5-1L66.8,78.9z"/>
	</g>
	<g>
		<defs>
			<rect id="SVGID_23_" y="0" width="292.7" height="93.4"/>
		</defs>
		<clipPath id="SVGID_24_">
			<use xlink:href="#SVGID_23_"  style="overflow:visible;"/>
		</clipPath>
		<path class="st11" d="M74.6,78.5C72.7,80.6,71,81,70,81s-2.4-0.6-2.4-3.1c0-2,0.9-4.3,2.6-5.5c0.9-0.7,2.1-1.2,3-1.2
			c1.2,0,2,0.8,2,1.8c0,2.2-3.7,3.3-5.8,3.8c0,0.2,0,0.4,0,0.6c0,1.2,0.4,2.3,1.7,2.3c0.9,0,2.1-0.6,3.2-1.7L74.6,78.5z M72.4,72
			c-0.3,0-0.7,0.1-0.9,0.3c-0.6,0.3-1.6,1.3-2,3.6c3.1-0.8,4-1.8,4-2.8C73.5,72.4,73,72,72.4,72L72.4,72z"/>
	</g>
	<g>
		<defs>
			<rect id="SVGID_25_" y="0" width="292.7" height="93.4"/>
		</defs>
		<clipPath id="SVGID_26_">
			<use xlink:href="#SVGID_25_"  style="overflow:visible;"/>
		</clipPath>
	</g>
	<g>
		<defs>
			<rect id="SVGID_27_" y="0" width="292.7" height="93.4"/>
		</defs>
		<clipPath id="SVGID_28_">
			<use xlink:href="#SVGID_27_"  style="overflow:visible;"/>
		</clipPath>
		<path class="st12" d="M110.7,82.5c-1.4,1.2-2.8,1.9-3.9,1.9c-1.8,0-2.3-1.6-2.3-3.2c0-0.3,0-0.6,0-0.9c2.9-0.7,7.9-2.2,7.9-5.3
			c0-1.3-1.1-2.4-2.7-2.4c-1.3,0-2.8,0.7-4.1,1.7c-2.3,1.8-3.6,4.8-3.6,7.6c0,3.5,1.9,4.3,3.3,4.3c1.3,0,3.5-0.5,5.9-3L110.7,82.5z
			 M107.4,74.3c0.3-0.2,0.8-0.3,1.2-0.3l0,0c0.9,0,1.5,0.6,1.5,1.6c0,1.4-1.3,2.7-5.5,3.8C105.2,76.1,106.6,74.8,107.4,74.3"/>
	</g>
	<g>
		<defs>
			<rect id="SVGID_29_" y="0" width="292.7" height="93.4"/>
		</defs>
		<clipPath id="SVGID_30_">
			<use xlink:href="#SVGID_29_"  style="overflow:visible;"/>
		</clipPath>
		<path class="st13" d="M118.1,82.6c-0.8,0.8-1.8,1.5-2.1,1.5c-0.2,0-0.3-0.2-0.1-1.1c1.2-5.7,2.3-10.6,3.4-16.2
			c0.1-0.6,0.1-0.9-0.2-0.9c-0.4,0-2.1,0.8-4.4,1l-0.1,0.9h0.8c1.4,0,1.6,0.2,1.3,1.4c-1,4.8-1.9,8.8-2.9,13.6
			c-0.6,2.9-0.1,3.6,0.5,3.6c0.9,0,2.9-1.2,4.4-3L118.1,82.6z"/>
	</g>
	<g>
		<defs>
			<rect id="SVGID_31_" y="0" width="292.7" height="93.4"/>
		</defs>
		<clipPath id="SVGID_32_">
			<use xlink:href="#SVGID_31_"  style="overflow:visible;"/>
		</clipPath>
		<path class="st14" d="M125.5,82.6c-0.8,0.8-1.8,1.5-2.1,1.5c-0.2,0-0.3-0.2-0.1-1.1c1.2-5.7,2.3-10.6,3.4-16.2
			c0.1-0.6,0.1-0.9-0.2-0.9c-0.4,0-2.1,0.8-4.4,1l-0.1,0.9h0.8c1.4,0,1.6,0.2,1.3,1.4c-1,4.8-1.9,8.8-2.9,13.6
			c-0.6,2.9-0.1,3.6,0.5,3.6c0.9,0,2.9-1.2,4.4-3L125.5,82.6z"/>
	</g>
	<g>
		<defs>
			<rect id="SVGID_33_" y="0" width="292.7" height="93.4"/>
		</defs>
		<clipPath id="SVGID_34_">
			<use xlink:href="#SVGID_33_"  style="overflow:visible;"/>
		</clipPath>
		<path class="st15" d="M255.6,82.6c-0.8,0.8-1.8,1.4-2,1.4s-0.2-0.3-0.1-1.3c0.6-3.6,1.5-7.6,2-9.5l-0.1-0.1
			c-0.3,0-0.7-0.1-1.1-0.2c-0.6-0.1-1.3-0.2-1.9-0.2l0,0c-1.9,0-4,1-5.5,2.2c-2.2,1.8-3.6,5.1-3.6,8c0,2.4,1,3.4,1.8,3.4
			s1.8-0.5,2.8-1.3c1.3-1,2.7-2.5,3.7-4h0.1l-0.5,2.6c-0.4,2.2-0.1,2.6,0.6,2.6c0.8,0,2.7-1,4.4-3L255.6,82.6z M252.2,78.6
			c-0.9,1.9-4.3,5.7-5.5,5.7c-0.4,0-0.8-0.6-0.8-1.9c0-2.9,1.2-6.3,3.2-7.8c0.5-0.4,1.3-0.6,2.1-0.6l0,0c0.7,0,1.5,0.2,1.9,0.4
			C252.9,75.4,252.6,77.4,252.2,78.6"/>
	</g>
	<g>
		<defs>
			<rect id="SVGID_35_" y="0" width="292.7" height="93.4"/>
		</defs>
		<clipPath id="SVGID_36_">
			<use xlink:href="#SVGID_35_"  style="overflow:visible;"/>
		</clipPath>
		<path class="st16" d="M150.7,82.5c-1.4,1.2-2.8,1.9-3.9,1.9c-1.8,0-2.3-1.6-2.3-3.2c0-0.3,0-0.6,0-0.9c2.9-0.7,7.9-2.2,7.9-5.3
			c0-1.3-1.1-2.4-2.7-2.4c-1.3,0-2.8,0.7-4.1,1.7c-2.3,1.8-3.6,4.8-3.6,7.6c0,3.5,1.9,4.3,3.3,4.3c1.3,0,3.5-0.5,5.9-2.9L150.7,82.5
			z M147.3,74.3c0.3-0.2,0.8-0.3,1.2-0.3l0,0c0.9,0,1.5,0.6,1.5,1.6c0,1.4-1.3,2.7-5.5,3.8C145,76.1,146.5,74.8,147.3,74.3"/>
	</g>
	<g>
		<defs>
			<rect id="SVGID_37_" y="0" width="292.7" height="93.4"/>
		</defs>
		<clipPath id="SVGID_38_">
			<use xlink:href="#SVGID_37_"  style="overflow:visible;"/>
		</clipPath>
		<path class="st17" d="M111.2,16.2l-0.3,1.5c-5.4,0.4-6.2,0.9-7.4,8.1l-4.2,24.1c-1.2,7.2-1.7,7.7,3.8,8.1l-0.3,1.5H85.5l0.3-1.5
			c5.4-0.4,6.9-0.9,8.1-8.1l4.9-26.8h-0.3L76.1,58.7h-1.6l-8-34.8h-0.1l-4.1,17.9c-1.6,7-2.3,10.6-2.4,12.3
			c-0.3,2.7,1.4,3.5,5.7,3.8l-0.3,1.5H49.4l0.3-1.6c3.7-0.1,5.4-1.1,6.3-3.5c0.7-1.9,1.8-5.6,3.5-12.5l3.9-16.1
			c1.7-7.1,0.7-7.6-4.9-8.1l0.3-1.5h10.6L78,50.9l22.1-34.8L111.2,16.2L111.2,16.2z"/>
	</g>
	<g>
		<defs>
			<rect id="SVGID_39_" y="0" width="292.7" height="93.4"/>
		</defs>
		<clipPath id="SVGID_40_">
			<use xlink:href="#SVGID_39_"  style="overflow:visible;"/>
		</clipPath>
		<path class="st18" d="M158.8,32.6c2.3,0,3.5,0.3,4.6,0.7c-0.2,2.5-1.7,9.4-2.6,11.1c-1.1,2.1-3.5,4.9-5.1,6.6
			c-2.6,2.8-5.4,4.8-6.4,4.8c-1.3,0-1.8-1.8-1.8-4.4c0-2.3,0.5-7,2.4-11c2-4.3,4.2-6.2,6.1-7.2C156.8,32.8,157.8,32.6,158.8,32.6
			 M159,56.3c-0.7,3.2,0.6,3.9,1.4,3.9c1,0,6.5-3,9.9-6.3l-0.7-1.3c-2,1.5-4.4,3.2-5,3.2s-0.5-0.9-0.1-3c1.3-7.6,2.9-15.1,4.4-21.9
			l-0.3-0.3c-0.7,0-1.8-0.2-2.6-0.4c-1.3-0.3-2.5-0.5-3.5-0.5c-4.2,0-9.5,2.5-13,5.6c-4.2,3.7-7.3,11-7.3,17.8
			c0,5.7,2.4,7.1,3.9,7.1c1.1,0,4.5-2.2,5.6-3.1c3.3-2.7,6.3-5.8,9.1-9.3h0.1L159,56.3z"/>
	</g>
	<g>
		<defs>
			<rect id="SVGID_41_" y="0" width="292.7" height="93.4"/>
		</defs>
		<clipPath id="SVGID_42_">
			<use xlink:href="#SVGID_41_"  style="overflow:visible;"/>
		</clipPath>
		<path class="st19" d="M278.2,32.6c2.3,0,3.5,0.3,4.6,0.7c-0.2,2.5-1.7,9.4-2.6,11.1c-1.1,2.1-3.5,4.9-5.1,6.6
			c-2.6,2.8-5.4,4.8-6.4,4.8c-1.3,0-1.8-1.8-1.8-4.4c0-2.3,0.5-7,2.4-11c2-4.3,4.2-6.2,6.1-7.2C276.2,32.8,277.2,32.6,278.2,32.6
			 M278.4,56.3c-0.7,3.2,0.6,3.9,1.4,3.9c1,0,6.5-3,9.9-6.3l-0.7-1.3c-2,1.5-4.4,3.2-5,3.2s-0.5-0.9-0.1-3
			c1.3-7.6,2.9-15.1,4.4-21.9l-0.3-0.3c-0.7,0-1.8-0.2-2.6-0.4c-1.3-0.3-2.5-0.5-3.5-0.5c-4.2,0-9.5,2.5-13,5.6
			c-4.2,3.7-7.3,11-7.3,17.8c0,5.7,2.4,7.1,3.9,7.1c1.1,0,4.5-2.2,5.6-3.1c3.3-2.7,6.3-5.8,9.1-9.3h0.1L278.4,56.3z"/>
	</g>
	<g>
		<defs>
			<rect id="SVGID_43_" y="0" width="292.7" height="93.4"/>
		</defs>
		<clipPath id="SVGID_44_">
			<use xlink:href="#SVGID_43_"  style="overflow:visible;"/>
		</clipPath>
		<path class="st20" d="M258.4,29.7c-4.4,0-8.6,2.3-11.3,4.8c-4.6,4.1-7.1,11.2-7.1,16.5c0,5.9,2.7,9.3,6.7,9.3
			c2.7,0,8.2-2.1,12.4-6.2l-0.8-1.5c-1.9,1.6-4.9,3.9-8.2,3.9c-3.4,0-4.7-3-4.7-6.9c0-4.6,1.3-9.7,3.3-12.8c1.5-2.5,3.3-4,5.2-4
			c1.8,0,3.5,1.1,4.7,2.7c0.7,0.9,1.5,0.7,2.4,0.1c1.1-0.7,1.8-1.7,1.8-2.7C262.8,31.4,260.8,29.7,258.4,29.7"/>
	</g>
	<g>
		<defs>
			<rect id="SVGID_45_" y="0" width="292.7" height="93.4"/>
		</defs>
		<clipPath id="SVGID_46_">
			<use xlink:href="#SVGID_45_"  style="overflow:visible;"/>
		</clipPath>
		<path class="st21" d="M237.7,52.6c-1.9,1.5-4.4,3-5,3s-0.4-0.7,0.1-2.8l5.1-23h-0.7l-4.4,1.8c-0.6,3.7-1.8,8.5-2.3,10.1
			c-1.5,3.5-10,14.5-13.5,14.5c-1.7,0-1.5-2.1-0.7-6.1l3.5-15.9c0.6-2.6,0.5-4.3-1.3-4.3c-1.3,0-5.3,2.6-8.8,5.9l0.8,1.4
			c1.6-1.3,3.4-2.4,4-2.4s0.3,1.2-0.3,3.7l-3.1,13.9c-1.6,7.1,1,8,1.8,8c1.7,0,3.9-1.2,5.5-2.3c4.1-2.7,7.8-7.3,10.9-11.5h0.2
			l-1.9,8.5c-0.8,3.5-0.4,5.2,1.1,5.2c0.9,0,6.5-3,9.8-6.3L237.7,52.6z"/>
	</g>
	<g>
		<defs>
			<rect id="SVGID_47_" y="0" width="292.7" height="93.4"/>
		</defs>
		<clipPath id="SVGID_48_">
			<use xlink:href="#SVGID_47_"  style="overflow:visible;"/>
		</clipPath>
		<path class="st22" d="M124.4,52.6c-3.6,3-6.5,4-8.7,4c-4.3,0-5.1-4.5-5.1-8c0-0.3,0.1-1.2,0.2-1.6c6.4-1.9,17.7-6.1,17.7-12.2
			c0-2.7-2.2-5-5.6-5c-2.9,0-6.9,1.8-9.8,4.1c-4.9,3.8-7.7,10.7-7.7,16.7c0,7.9,4.3,9.7,6.9,9.7c2.1,0,7-0.7,13-6.2L124.4,52.6z
			 M117.6,33.1c0.5-0.3,1.5-0.6,2.3-0.6c1.4,0,3.3,0.8,3.3,3.3c0,3.6-2.9,6.5-12.1,9.2C112.3,37.5,115.5,34.2,117.6,33.1"/>
	</g>
	<g>
		<defs>
			<rect id="SVGID_49_" y="0" width="292.7" height="93.4"/>
		</defs>
		<clipPath id="SVGID_50_">
			<use xlink:href="#SVGID_49_"  style="overflow:visible;"/>
		</clipPath>
		<path class="st23" d="M203.8,52.6c-3.6,3-6.5,4-8.7,4c-4.3,0-5.1-4.5-5.1-8c0-0.3,0.1-1.2,0.2-1.6c6.4-1.9,17.6-6.1,17.6-12.2
			c0-2.7-2.2-5-5.6-5c-2.9,0-6.9,1.8-9.8,4.1c-4.9,3.8-7.7,10.7-7.7,16.7c0,7.9,4.3,9.7,6.9,9.7c2.1,0,7-0.7,13-6.1L203.8,52.6z
			 M197.1,33.1c0.5-0.3,1.5-0.6,2.3-0.6c1.4,0,3.3,0.8,3.3,3.3c0,3.6-2.9,6.5-12.1,9.2C191.8,37.5,195,34.2,197.1,33.1"/>
	</g>
	<g>
		<defs>
			<rect id="SVGID_51_" y="0" width="292.7" height="93.4"/>
		</defs>
		<clipPath id="SVGID_52_">
			<use xlink:href="#SVGID_51_"  style="overflow:visible;"/>
		</clipPath>
		<path class="st24" d="M140,53.7c-3.1,3.8-7.6,6.5-9.5,6.5c-1.2,0-2.3-1.4-1-7.5c2.1-10,4.6-22.2,6.7-32.1c0.6-2.6,0.2-2.9-2.6-3
			H132l0.2-1.5c5.5-0.4,8.4-2.3,9.2-2.3c0.6,0,0.7,0.5,0.4,1.9c-2.4,11.6-5.3,25.7-7.9,37.6c-0.4,1.9-0.1,2.3,0.2,2.3
			c0.7,0,3.2-1.7,4.9-3.4L140,53.7z"/>
	</g>
	<g>
		<defs>
			<rect id="SVGID_53_" y="0" width="292.7" height="93.4"/>
		</defs>
		<clipPath id="SVGID_54_">
			<use xlink:href="#SVGID_53_"  style="overflow:visible;"/>
		</clipPath>
		<path class="st25" d="M183.2,53.7c-3.1,3.8-7.6,6.5-9.5,6.5c-1.2,0-2.3-1.4-1-7.5c2.1-10,4.6-22.2,6.7-32.1c0.6-2.6,0.2-2.9-2.6-3
			h-1.6l0.2-1.5c5.5-0.4,8.4-2.3,9.2-2.3c0.6,0,0.7,0.5,0.4,1.9c-2.4,11.6-5.3,25.7-7.9,37.6c-0.4,1.9-0.1,2.3,0.2,2.3
			c0.7,0,3.2-1.7,4.9-3.4L183.2,53.7z"/>
	</g>
	<g>
		<defs>
			<rect id="SVGID_55_" y="0" width="292.7" height="93.4"/>
		</defs>
		<clipPath id="SVGID_56_">
			<use xlink:href="#SVGID_55_"  style="overflow:visible;"/>
		</clipPath>
		<path class="st26" d="M30.9,21c-0.5-0.3-1.1-1.2-0.5-2c4.2-5.7,4.2-13.4,1.1-18.7L31.3,0c-0.4,0.2-0.9,1.2-0.9,1.7
			C30.7,2.4,31.1,3,31.6,4c2.7,5-0.3,14.4-3.6,15.3c-8.5,2.4-19.5,6.3-24.6,17.1l0,0l0,0c0,0,0,0,0.1,0l0,0l0,0
			c7.3-9.4,20.9-12.6,22-12.8c0.6-0.1-0.9,1.6-1.2,2.1c-0.4,0.5-1.8,1.2-3.1,1.7c-2.9,1.2-15.7,7-20.1,17.5l0,0l0,0V45l0,0l0,0
			c1.6-2.2,8.1-9.3,19.7-13.6c0.2-0.1,0.3,0,0.3,0.2c-0.1,0.6-1,2.4-4.2,4.3C11,39.4,1.8,45.6,0,54.1l0,0l0,0c0,0,0,0.1,0.1,0.1l0,0
			l0,0c2.1-4.3,7.9-10.3,16-13.8c0.1-0.1,0.2,0,0.2,0.2c-0.1,1.6-2,3.8-2.5,4.3c-2.5,2.4-12.3,7.8-13,17.8l0,0l0,0l0,0l0,0l0,0
			C3.1,55.6,11.5,50,13.1,49.4c0.2-0.1,0.2,0.1,0.2,0.2c0,2.6-1.2,4.3-2,4.9c-1.8,1.4-8.1,5.7-8.4,13.2l0,0l0,0l0,0l0,0l0,0l0,0
			c1.2-5.2,7.1-8.8,8.4-9.2c0.1,0,0.2,0,0.2,0.2c0,0.4,0,2.3-1.5,3.4c-3.6,2.4-5.5,7.4-4.9,10.8l0,0l0,0l0,0l0,0l0,0
			c0.5-4.6,3-7.2,5.4-8.2c0.4-0.1,0.4,0,0.4,0.5c0,0.3-0.1,1.9-1.1,3.2c-2.3,2.9-2.5,7.3-1.9,9.5l0,0l0,0l0,0l0,0l0,0l0,0
			c0-4,1.6-6.4,2.8-7c0.2-0.1,0.3-0.1,0.4,0.4c0.3,1.2,0.1,1.6-0.3,2.8c-1.3,4.1,0.5,10,5.2,12.6l0,0l0,0l0,0l0,0l0,0
			c-3.1-3.4-3.9-7.3-3.7-9.4c0.1-1,0.4-2.2,1.2-1.8c0.1,0.1,1.7,2,1.7,5.3l0,0l0,0l0,0l0,0l0,0c1.7-5.3-0.5-8.4-2.2-10.2
			c-0.8-0.8-0.7-3.3-0.6-3.6c0.1-0.7,0.5-1,0.9-0.7c0.3,0.2,3,2.1,3.2,6.6l0,0l0,0l0,0l0,0l0,0c0.9-3.3,0.7-6.6-3.1-10.5
			c-1.2-1.1-0.5-4.5-0.3-5.3c0.1-0.4,0.5-0.6,0.9-0.2c0,0,5.8,5.6,4.4,11.4l0,0l0,0v0.1l0,0l0,0c1.8-2.3,2-7.3-0.9-12
			c-1.7-2.8-3.3-4.2-3.2-5.2c0-0.8,0.4-2.4,0.7-3c0.1-0.2,0.4-0.5,0.8-0.2c1,0.7,7.9,6.8,6,14.5l0,0c0,0,0,0,0.1,0l0,0l0,0
			c3.9-5.5,1.7-13-4.2-18.8c-0.9-0.8,0-3.7,0.8-4.6c0.1-0.2,0.3-0.2,0.6-0.1c4.1,2.3,9.5,11.3,7.4,17.2l0,0l0,0v0.1l0,0l0,0
			c4.7-6,0.6-15.9-4.6-22.5c-0.6-1.2,0.8-2.8,0.9-3c0.3-0.4,0.4-0.3,0.6-0.2c7.4,5.7,9.4,15.6,7.1,20.9l0,0l0,0c0,0,0,0,0.1,0l0,0
			l0,0c5.5-6.7,3.5-17.3-4.3-25.5c-0.5-0.6-0.3-1.2,0.3-2c0.2-0.3,0.5-0.3,0.7-0.1c11.3,8,10.2,16.2,8.2,21.5l0,0l0,0l0,0l0,0l0,0
			C40,41.3,43.8,29.9,30.9,21"/>
	</g>
	<g>
		<defs>
			<rect id="SVGID_57_" y="0" width="292.7" height="93.4"/>
		</defs>
		<clipPath id="SVGID_58_">
			<use xlink:href="#SVGID_57_"  style="overflow:visible;"/>
		</clipPath>
		<path class="st27" d="M34.2,73.3c-3-3.5-3.3-7.2-3.1-11.4l0,0l0,0l0,0l0,0l0,0c-2.4,2.8-10.1,11-9.3,18.9c0,0.1,0.1,0.7,0.1,0.7
			c0.7,3.6,3.8,6.4,7.6,6.4c4.3,0,7.7-3.5,7.7-7.8C37.2,78.1,36.4,75.9,34.2,73.3"/>
	</g>
</g>
</svg>
